<svg xmlns="http://www.w3.org/2000/svg" xmlns:xlink="http://www.w3.org/1999/xlink" viewBox="0 0 136.89 120"><defs><style>.cls-1{opacity:0.3;fill:url(#linear-gradient);}.cls-2{fill:url(#linear-gradient-2);}.cls-3{fill:url(#linear-gradient-3);}.cls-4{opacity:0.07;}</style><linearGradient id="linear-gradient" x1="55.38" y1="111.26" x2="151.26" y2="126.87" gradientUnits="userSpaceOnUse"><stop offset="0" stop-color="#b878ff"/><stop offset="1" stop-color="#609cff" stop-opacity="0"/></linearGradient><linearGradient id="linear-gradient-2" x1="107.94" y1="167.5" x2="23.99" y2="-19.92" gradientUnits="userSpaceOnUse"><stop offset="0" stop-color="#b878ff"/><stop offset="1" stop-color="#609cff"/></linearGradient><linearGradient id="linear-gradient-3" x1="164.03" y1="127.98" x2="63.81" y2="66.37" xlink:href="#linear-gradient"/></defs><title>Asset 4</title><g id="Layer_2" data-name="Layer 2"><g id="Layer_1-2" data-name="Layer 1"><path class="cls-1" d="M136.89,111.91c0,4.17-31.28,7.57-71.55,8,0,0,0,0,0,0-3,0-6.07,0-9.18,0-18.17,0-34.94-.59-48.43-1.6V105.45c13.45-1,30.17-1.62,48.27-1.62h.16c14,0,27.24.37,38.74,1C119.91,106.19,136.89,108.86,136.89,111.91Z"/><path class="cls-2" d="M116.77,10.91c-4.72,4.73-12,7.12-20.35,7.12-13,0-28.6-5.9-40.73-18L19.2,36.48A39.4,39.4,0,0,0,7.69,64.29V120h55.7c.63,0,1.28,0,1.91,0,0,0,0,0,0,0A39.27,39.27,0,0,0,91.2,108.48L127.68,72C107.81,52.12,104.65,23,116.77,10.91Zm-37,86.14a23,23,0,0,1-16.38,6.78H56a50.85,50.85,0,0,0-32.11-32.1V64.29a23,23,0,0,1,6.79-16.37L56.86,21.68C68.13,29.1,81,33.53,93.56,34.13h0A74.34,74.34,0,0,0,106,70.83Z"/><path class="cls-3" d="M93.68,23.23h0C77.08,22,60.22,15.61,45.6,5.35L9.9,39.05A30.37,30.37,0,0,0,.29,60.45L0,70.28a66.9,66.9,0,0,1,25.77,17A66.89,66.89,0,0,1,41.23,114l9.84.29A30.35,30.35,0,0,0,73,105.93l35.7-33.67C99.09,56.7,94,39.38,93.68,23.23ZM67.34,91.77a21,21,0,0,1-15.16,5.78l-6.81-.2A46.23,46.23,0,0,0,34.68,78.87,46.32,46.32,0,0,0,16.85,67.12l.2-6.81a21,21,0,0,1,6.66-14.8L48.39,22.2A67.83,67.83,0,0,0,81.65,34.56a63.56,63.56,0,0,0,2.79,17.11A71.47,71.47,0,0,0,92,68.47Z"/><path class="cls-4" d="M127.69,72,91.2,108.49A39.38,39.38,0,0,1,63.39,120H7.69l36-36A50.51,50.51,0,0,1,56,103.84h7.43a23,23,0,0,0,16.38-6.79L106,70.83a74.38,74.38,0,0,1-12.42-36.7l23.21-23.22C104.66,23,107.81,52.12,127.69,72Z"/></g></g></svg>