<svg xmlns="http://www.w3.org/2000/svg" viewBox="0 0 120 120"><defs><style>.cls-1{fill:#333;}.cls-2{opacity:0.2;}</style></defs><title>Asset 5</title><g id="Layer_2" data-name="Layer 2"><g id="Layer_1-2" data-name="Layer 1"><path class="cls-1" d="M109.09,10.91c-4.73,4.73-12,7.12-20.35,7.12-13,0-28.61-5.9-40.74-18L11.51,36.48A39.4,39.4,0,0,0,0,64.29V120H55.7c.63,0,1.28,0,1.91,0,0,0,0,0,0,0a39.27,39.27,0,0,0,25.86-11.46L120,72C100.12,52.12,97,23,109.09,10.91Zm-37,86.14a23,23,0,0,1-16.38,6.78H48.27A50.48,50.48,0,0,0,36,84,50.51,50.51,0,0,0,16.16,71.73V64.29A23,23,0,0,1,23,47.92L49.17,21.68c11.27,7.42,24.15,11.85,36.7,12.45h0A74.34,74.34,0,0,0,98.3,70.83Z"/><path class="cls-2" d="M120,72,83.51,108.49A39.38,39.38,0,0,1,55.7,120H0L36,84a50.51,50.51,0,0,1,12.27,19.84H55.7a23,23,0,0,0,16.38-6.79L98.3,70.83a74.48,74.48,0,0,1-12.42-36.7l23.21-23.22C97,23,100.12,52.12,120,72Z"/></g></g></svg>