<svg xmlns="http://www.w3.org/2000/svg" xmlns:xlink="http://www.w3.org/1999/xlink" viewBox="0 0 327.67 89.1"><defs><style>.cls-1{opacity:0.3;fill:url(#linear-gradient);}.cls-2{fill:url(#linear-gradient-2);}.cls-3{fill:url(#linear-gradient-3);}.cls-4{opacity:0.07;}.cls-5{font-size:32.36px;fill:#242c56;font-family:ProximaNova-Bold, Proxima Nova;font-weight:700;}.cls-6{letter-spacing:0em;}.cls-7{letter-spacing:0em;}</style><linearGradient id="linear-gradient" x1="41.12" y1="82.61" x2="112.32" y2="94.21" gradientUnits="userSpaceOnUse"><stop offset="0" stop-color="#b878ff"/><stop offset="1" stop-color="#609cff" stop-opacity="0"/></linearGradient><linearGradient id="linear-gradient-2" x1="80.15" y1="124.37" x2="17.81" y2="-14.79" gradientUnits="userSpaceOnUse"><stop offset="0" stop-color="#b878ff"/><stop offset="1" stop-color="#609cff"/></linearGradient><linearGradient id="linear-gradient-3" x1="121.8" y1="95.03" x2="47.38" y2="49.28" xlink:href="#linear-gradient"/></defs><title>Asset 7</title><g id="Layer_2" data-name="Layer 2"><g id="Layer_1-2" data-name="Layer 1"><path class="cls-1" d="M101.65,83.1c0,3.09-23.23,5.62-53.13,6h0q-3.36,0-6.82,0c-13.49,0-25.94-.44-36-1.19V78.3c10-.75,22.4-1.2,35.84-1.2h.12c10.42,0,20.23.27,28.77.73C89,78.85,101.65,80.83,101.65,83.1Z"/><path class="cls-2" d="M86.71,8.1c-3.51,3.51-8.93,5.29-15.11,5.29C61.91,13.39,50.36,9,41.35,0L14.26,27.09A29.23,29.23,0,0,0,5.71,47.74V89.1H47.07c.47,0,1,0,1.42,0h0a29.18,29.18,0,0,0,19.2-8.51L94.81,53.46C80.05,38.7,77.71,17.1,86.71,8.1Zm-27.48,64a17.05,17.05,0,0,1-12.16,5H41.55a37.53,37.53,0,0,0-9.11-14.73,37.53,37.53,0,0,0-14.73-9.11V47.74a17.05,17.05,0,0,1,5-12.16L42.22,16.1a55,55,0,0,0,27.25,9.24h0A55.21,55.21,0,0,0,78.7,52.59Z"/><path class="cls-3" d="M69.56,17.25h0C57.24,16.31,44.72,11.59,33.86,4L7.35,29A22.57,22.57,0,0,0,.21,44.89L0,52.19A49.59,49.59,0,0,1,19.13,64.81,49.69,49.69,0,0,1,30.62,84.64l7.3.22a22.61,22.61,0,0,0,16.28-6.2l26.51-25A73,73,0,0,1,69.56,17.25ZM50,68.14a15.63,15.63,0,0,1-11.26,4.3l-5.06-.15a34.2,34.2,0,0,0-7.94-13.72,34.21,34.21,0,0,0-13.24-8.73l.15-5.05a15.63,15.63,0,0,1,4.94-11L35.93,16.48a50.29,50.29,0,0,0,24.7,9.18A46.86,46.86,0,0,0,62.7,38.37a53.25,53.25,0,0,0,5.64,12.47Z"/><path class="cls-4" d="M94.81,53.46,67.72,80.55A29.23,29.23,0,0,1,47.07,89.1H5.71L32.44,62.37A37.53,37.53,0,0,1,41.55,77.1h5.52a17.05,17.05,0,0,0,12.16-5L78.7,52.59a55.21,55.21,0,0,1-9.22-27.25L86.71,8.1C77.71,17.1,80.05,38.7,94.81,53.46Z"/><text class="cls-5" transform="translate(138.84 55.26)">threatnot<tspan class="cls-6" x="136.02" y="0">e</tspan><tspan class="cls-7" x="153.78" y="0">.io</tspan></text></g></g></svg>