<svg xmlns="http://www.w3.org/2000/svg" viewBox="0 0 321.96 89.1"><defs><style>.cls-1{fill:#333;}.cls-2{opacity:0.2;}.cls-3{font-size:32.36px;fill:#242c56;font-family:ProximaNova-Bold, Proxima Nova;font-weight:700;}.cls-4{letter-spacing:0em;}.cls-5{letter-spacing:0em;}</style></defs><title>Asset 8</title><g id="Layer_2" data-name="Layer 2"><g id="Layer_1-2" data-name="Layer 1"><path class="cls-1" d="M81,8.1c-3.51,3.51-8.93,5.29-15.11,5.29C56.2,13.39,44.65,9,35.64,0L8.55,27.09A29.23,29.23,0,0,0,0,47.74V89.1H41.36c.47,0,1,0,1.42,0h0A29.18,29.18,0,0,0,62,80.55L89.1,53.46C74.34,38.7,72,17.1,81,8.1Zm-27.48,64a17.05,17.05,0,0,1-12.16,5H35.84a37.53,37.53,0,0,0-9.11-14.73A37.53,37.53,0,0,0,12,53.26V47.74a17.05,17.05,0,0,1,5-12.16L36.51,16.1a55,55,0,0,0,27.25,9.24h0A55.21,55.21,0,0,0,73,52.59Z"/><path class="cls-2" d="M89.1,53.46,62,80.55A29.23,29.23,0,0,1,41.36,89.1H0L26.73,62.37A37.53,37.53,0,0,1,35.84,77.1h5.52a17.05,17.05,0,0,0,12.16-5L73,52.59a55.21,55.21,0,0,1-9.22-27.25L81,8.1C72,17.1,74.34,38.7,89.1,53.46Z"/><text class="cls-3" transform="translate(133.13 55.26)">threatnot<tspan class="cls-4" x="136.02" y="0">e</tspan><tspan class="cls-5" x="153.78" y="0">.io</tspan></text></g></g></svg>